<svg xmlns="http://www.w3.org/2000/svg" xmlns:xlink="http://www.w3.org/1999/xlink" width="1080" zoomAndPan="magnify" viewBox="0 0 810 809.999993" height="1080" preserveAspectRatio="xMidYMid meet" version="1.0"><defs><clipPath id="09fbac83a9"><path d="M 287.742188 279.839844 L 391.242188 279.839844 L 391.242188 383.339844 L 287.742188 383.339844 Z M 287.742188 279.839844 " clip-rule="nonzero"/></clipPath><clipPath id="1c450ef052"><path d="M 264.457031 285.285156 L 404.707031 285.285156 L 404.707031 481 L 264.457031 481 Z M 264.457031 285.285156 " clip-rule="nonzero"/></clipPath><clipPath id="cec5e74bec"><path d="M 372 360 L 547.179688 360 L 547.179688 508.863281 L 372 508.863281 Z M 372 360 " clip-rule="nonzero"/></clipPath><clipPath id="326629c07a"><path d="M 339.429688 301.113281 L 514 301.113281 L 514 450 L 339.429688 450 Z M 339.429688 301.113281 " clip-rule="nonzero"/></clipPath></defs><g clip-path="url(#09fbac83a9)"><path fill="#040606" d="M 339.492188 380.53125 C 312.503906 380.53125 290.550781 358.574219 290.550781 331.59375 C 290.550781 313.765625 300.136719 298.132812 314.421875 289.578125 C 314.964844 289.976562 315.648438 290.25 316.515625 290.25 C 316.515625 290.25 317.457031 290.25 311.457031 294.933594 C 305.457031 299.625 306.015625 306.125 307.890625 302.03125 C 309.769531 297.933594 311.457031 299.4375 308.457031 305.25 C 305.457031 311.066406 310.035156 309.1875 311.585938 312.75 C 313.144531 316.308594 313.707031 312 314.453125 318.753906 C 314.453125 318.753906 316.335938 321 319.707031 319.875 C 323.082031 318.753906 319.144531 322.871094 315.582031 326.25 C 312.019531 329.628906 313.140625 330.746094 315.019531 332.8125 C 316.894531 334.878906 317.648438 336.5625 315.957031 338.816406 C 314.273438 341.0625 318.582031 341.8125 319.707031 343.125 C 320.832031 344.4375 320.640625 348.75 318.019531 350.628906 C 315.398438 352.5 319.332031 356.625 318.765625 362.441406 C 318.203125 368.25 318.339844 370.683594 320.992188 371.0625 C 323.644531 371.4375 320.640625 366 321.765625 363.5625 C 322.894531 361.128906 324.210938 365.253906 326.832031 358.691406 C 326.832031 358.691406 331.523438 359.8125 333.578125 352.6875 C 333.578125 352.6875 337.703125 352.121094 338.457031 349.875 C 339.210938 347.625 338.269531 346.125 344.265625 341.25 C 350.261719 336.371094 340.140625 332.625 334.707031 332.4375 C 334.707031 332.4375 332.714844 333.25 336.207031 326.996094 C 337.730469 324.269531 333.207031 324.9375 332.082031 322.5 C 330.957031 320.0625 328.332031 317.25 323.082031 317.8125 C 317.832031 318.375 316.328125 320.253906 316.144531 317.0625 C 315.957031 313.871094 318.390625 312.378906 315.765625 312 C 313.144531 311.625 314.453125 311.4375 317.273438 308.8125 C 317.273438 308.8125 315.582031 307.679688 313.894531 309.375 C 312.207031 311.066406 309.203125 308.441406 312.769531 304.691406 C 316.335938 300.9375 321.957031 298.121094 321.582031 305.25 C 321.207031 312.378906 323.832031 302.03125 323.832031 302.03125 C 323.832031 302.03125 327.769531 297 332.648438 296.628906 C 337.515625 296.25 334.519531 296.0625 334.519531 294.375 C 334.519531 292.691406 336.765625 297.1875 339.492188 296.0625 C 342.207031 294.933594 336.578125 294.5625 337.144531 292.691406 C 337.703125 290.8125 340.898438 291.371094 342.207031 293.816406 C 343.519531 296.25 345.019531 292.503906 341.644531 288.558594 C 338.269531 284.628906 338.832031 287.066406 335.644531 288.746094 C 332.457031 290.4375 333.773438 291.371094 333.207031 288.558594 C 332.648438 285.75 332.457031 288.746094 330.957031 287.253906 C 329.453125 285.75 333.632812 286.445312 335.832031 286.6875 C 338.03125 286.925781 337.332031 285.375 337.332031 285.375 L 339.492188 284.4375 C 339.492188 284.4375 340.898438 286.5 342.582031 286.125 C 344.265625 285.75 341.457031 283.121094 343.140625 283.496094 C 344.832031 283.875 347.078125 282.375 347.265625 284.628906 C 347.457031 286.875 345.953125 289.875 352.144531 286.5 C 353.398438 285.816406 354.234375 285.375 354.804688 285.109375 C 355.226562 285.246094 355.632812 285.390625 356.050781 285.546875 C 356.089844 285.996094 356.234375 286.578125 357.019531 287.066406 C 359.457031 288.558594 358.707031 287.246094 361.890625 289.125 C 365.082031 291.003906 363.015625 293.0625 365.453125 293.4375 C 367.890625 293.816406 370.144531 297.1875 368.273438 297.375 C 366.394531 297.5625 366.207031 295.316406 363.398438 294.933594 C 360.578125 294.5625 364.523438 295.871094 366.394531 297.5625 C 368.273438 299.246094 368.273438 301.246094 366.394531 302.03125 C 364.523438 302.8125 365.90625 307.128906 368.964844 306.5625 C 372.023438 306 370.890625 302.8125 372.578125 303.566406 C 374.269531 304.3125 373.703125 306.1875 376.519531 307.316406 C 379.335938 308.441406 376.140625 309.933594 379.519531 310.121094 C 382.898438 310.3125 384.582031 311.625 381.578125 312.9375 C 378.578125 314.253906 380.082031 315.375 377.453125 312.183594 C 374.828125 309 375.089844 312.050781 374.828125 309 C 374.574219 305.949219 370.332031 308.8125 368.082031 309.1875 C 365.832031 309.5625 367.707031 311.8125 365.640625 312.183594 C 363.574219 312.5625 362.640625 312 363.203125 316.875 C 363.765625 321.753906 362.457031 322.871094 360.203125 322.871094 C 357.953125 322.871094 362.085938 325.496094 363.203125 328.875 C 364.328125 332.246094 364.523438 334.3125 369.398438 333 C 374.269531 331.6875 372.769531 331.6875 373.332031 334.3125 C 373.894531 336.9375 375.957031 332.8125 376.328125 335.4375 C 376.707031 338.0625 371.644531 338.625 374.453125 340.308594 C 377.265625 341.992188 375.210938 345.9375 373.894531 346.871094 C 372.578125 347.8125 373.515625 351.179688 370.707031 352.6875 C 367.890625 354.1875 372.023438 356.808594 370.332031 358.5 C 368.648438 360.191406 364.140625 362.25 365.832031 366.378906 C 367.523438 370.496094 367.523438 368.058594 371.085938 365.058594 C 374.640625 362.0625 377.648438 357 379.335938 357.1875 C 379.941406 357.257812 380.226562 357.726562 380.585938 358.125 C 371.855469 371.597656 356.699219 380.53125 339.492188 380.53125 Z M 339.492188 279.84375 C 310.953125 279.84375 287.738281 303.054688 287.738281 331.59375 C 287.738281 360.125 310.953125 383.34375 339.492188 383.34375 C 368.023438 383.34375 391.238281 360.125 391.238281 331.59375 C 391.238281 303.054688 368.023438 279.84375 339.492188 279.84375 " fill-opacity="1" fill-rule="nonzero"/></g><g clip-path="url(#1c450ef052)"><path fill="#000000" d="M 402.652344 420.179688 C 401.191406 414.980469 398.394531 409.6875 394.339844 404.453125 C 389.964844 398.8125 383.96875 392.894531 376.519531 386.875 C 368.871094 380.695312 359.140625 374.167969 347.605469 367.46875 C 334.378906 359.765625 323.675781 352.992188 315.78125 347.320312 C 307.402344 341.3125 301.113281 335.816406 296.550781 330.523438 C 291.550781 324.726562 288.285156 318.902344 286.839844 313.210938 C 285.523438 308.015625 285.066406 302.4375 285.488281 296.625 C 285.730469 293.242188 286.515625 289.929688 287.828125 286.714844 C 288.152344 285.925781 287.105469 285.304688 286.566406 285.964844 C 284.148438 288.953125 282.03125 292.222656 280.242188 295.75 C 276.820312 302.472656 274.792969 309.972656 274.210938 318.058594 C 273.738281 324.625 273.96875 330.527344 274.90625 335.597656 C 275.722656 340.070312 277.722656 344.570312 280.847656 348.984375 C 284.269531 353.832031 289.304688 358.917969 295.820312 364.105469 C 302.695312 369.582031 312.039062 375.765625 323.589844 382.484375 L 323.683594 382.535156 C 335.863281 389.792969 345.980469 396.273438 353.746094 401.796875 C 362.023438 407.683594 368.363281 413.128906 373.132812 418.453125 C 378.382812 424.304688 381.941406 430.441406 383.710938 436.679688 C 385.378906 442.578125 385.96875 449.054688 385.472656 455.941406 C 385.015625 462.277344 383.296875 468.199219 380.371094 473.558594 C 379.28125 475.542969 378.050781 477.421875 376.683594 479.191406 C 376.082031 479.972656 377.023438 481.003906 377.847656 480.464844 C 378.753906 479.871094 379.648438 479.253906 380.523438 478.621094 C 387.066406 473.878906 392.59375 467.832031 396.957031 460.644531 C 401.242188 453.589844 403.640625 445.734375 404.300781 436.625 C 404.703125 431.070312 404.148438 425.539062 402.652344 420.179688 Z M 295.035156 478.164062 C 291.058594 475.722656 287.257812 472.890625 283.667969 469.683594 C 276.363281 463.164062 269.902344 454.886719 264.457031 445.078125 L 265.167969 476.90625 C 265.230469 476.875 265.296875 476.84375 265.363281 476.816406 C 268.136719 475.566406 270.734375 475.21875 272.621094 475.175781 C 275.097656 475.121094 277.792969 475.335938 280.625 475.820312 C 283.136719 476.25 286.019531 476.898438 289.191406 477.753906 C 291.019531 478.253906 292.828125 478.71875 294.617188 479.15625 C 295.226562 479.308594 295.566406 478.488281 295.035156 478.164062 Z M 379.277344 285.6875 C 383.34375 286.925781 386.078125 287.535156 388.210938 287.691406 C 392.023438 287.964844 395.4375 287.441406 398.398438 286.132812 L 396.488281 312.539062 C 396.425781 312.375 396.359375 312.210938 396.289062 312.046875 C 392.402344 302.539062 387.597656 294.621094 382.019531 288.503906 C 381.128906 287.523438 380.210938 286.585938 379.277344 285.6875 " fill-opacity="1" fill-rule="nonzero"/></g><g clip-path="url(#cec5e74bec)"><path fill="#f1590c" d="M 537.359375 360.871094 C 537.9375 362.042969 538.488281 363.324219 539.019531 364.578125 C 542.277344 372.277344 544.566406 380.257812 545.878906 388.445312 C 546.75 393.886719 547.183594 399.414062 547.183594 405.003906 C 547.183594 419.019531 544.4375 432.625 539.019531 445.441406 C 533.785156 457.808594 526.296875 468.921875 516.761719 478.457031 C 507.226562 487.988281 496.121094 495.480469 483.75 500.714844 C 470.9375 506.136719 457.332031 508.890625 443.316406 508.890625 C 429.300781 508.890625 415.695312 506.160156 402.878906 500.742188 C 391.761719 496.039062 381.664062 489.574219 372.808594 481.351562 L 443.3125 481.351562 C 485.371094 481.351562 519.585938 447.066406 519.585938 405.011719 C 519.585938 399.328125 518.957031 393.761719 517.773438 388.386719 L 443.320312 388.386719 L 443.320312 388.441406 C 434.054688 388.445312 426.664062 395.953125 426.664062 405.109375 C 426.664062 414.269531 434.128906 421.777344 443.3125 421.777344 L 484.324219 421.777344 C 482.128906 427.148438 478.847656 432.109375 474.59375 436.363281 C 466.238281 444.714844 455.128906 449.257812 443.3125 449.257812 C 431.496094 449.257812 420.386719 444.667969 412.035156 436.328125 C 403.675781 427.980469 399.070312 416.875 399.070312 405.054688 C 399.070312 393.234375 403.679688 382.128906 412.042969 373.78125 C 420.398438 365.445312 431.503906 360.863281 443.324219 360.863281 Z M 537.359375 360.871094 " fill-opacity="1" fill-rule="nonzero"/></g><g clip-path="url(#326629c07a)"><path fill="#f1590c" d="M 339.449219 405.007812 C 339.449219 390.992188 342.195312 377.375 347.617188 364.5625 C 352.851562 352.195312 360.339844 341.082031 369.875 331.546875 C 379.40625 322.015625 390.515625 314.523438 402.882812 309.289062 C 415.699219 303.871094 429.304688 301.113281 443.320312 301.113281 C 457.335938 301.113281 470.941406 303.84375 483.753906 309.261719 C 494.875 313.964844 504.972656 320.429688 513.828125 328.652344 L 443.320312 328.652344 C 401.261719 328.652344 367.046875 362.929688 367.046875 404.988281 C 367.046875 421.476562 372.304688 436.722656 381.234375 449.304688 L 349.332031 449.304688 C 348.738281 447.964844 348.164062 446.75 347.621094 445.460938 C 342.195312 432.640625 339.449219 419.027344 339.449219 405.007812 Z M 339.449219 405.007812 " fill-opacity="1" fill-rule="nonzero"/></g></svg>